<svg xmlns="http://www.w3.org/2000/svg" xmlns:xlink="http://www.w3.org/1999/xlink" viewBox="0 0 432 432"><defs><style>.cls-1{fill:url(#linear-gradient);}.cls-2{fill:url(#linear-gradient-2);}.cls-3{fill:url(#linear-gradient-3);}</style><linearGradient id="linear-gradient" x1="142.87" y1="66.5" x2="252.5" y2="256.39" gradientUnits="userSpaceOnUse"><stop offset="0" stop-color="#0ea6dd"/><stop offset="0.38" stop-color="#1493db"/><stop offset="0.7" stop-color="#2262d6"/><stop offset="1" stop-color="#2453c7"/></linearGradient><linearGradient id="linear-gradient-2" x1="316.45" y1="53.45" x2="334.77" y2="85.18" xlink:href="#linear-gradient"/><linearGradient id="linear-gradient-3" x1="236.22" y1="297.1" x2="268.42" y2="352.88" gradientTransform="translate(-155.9 273.6) rotate(-45)" xlink:href="#linear-gradient"/></defs><title>Gradient Logomark Only</title><g id="Guides"><path class="cls-1" d="M197.69,51.84a109.61,109.61,0,1,0,109.6,109.6A109.6,109.6,0,0,0,197.69,51.84Zm38.64,49.82c0,9.55-10.26,15.77-18.58,11.11a52.34,52.34,0,1,0-.21,91.54,12.59,12.59,0,0,1,18.8,10.91v.29a12.48,12.48,0,0,1-6.38,10.94,77.4,77.4,0,0,1-38.42,9.75c-42.76-.39-77.46-35.81-77-78.57A77.73,77.73,0,0,1,230,90.53a12.47,12.47,0,0,1,6.33,10.91Z"/><circle class="cls-2" cx="325.61" cy="69.31" r="18.31"/><rect class="cls-3" x="235.52" y="254.87" width="33.59" height="140.24" rx="9.65" ry="9.65" transform="translate(303.71 -83.23) rotate(45)"/></g></svg>